<?xml version="1.0" encoding="UTF-8" standalone="no"?>
<svg
   xmlns:dc="http://purl.org/dc/elements/1.1/"
   xmlns:cc="http://creativecommons.org/ns#"
   xmlns:rdf="http://www.w3.org/1999/02/22-rdf-syntax-ns#"
   xmlns:svg="http://www.w3.org/2000/svg"
   xmlns="http://www.w3.org/2000/svg"
   xmlns:sodipodi="http://sodipodi.sourceforge.net/DTD/sodipodi-0.dtd"
   xmlns:inkscape="http://www.inkscape.org/namespaces/inkscape"
   id="Layer_4"
   viewBox="0 0 839 200"
   version="1.1"
   inkscape:version="0.91 r13725"
   sodipodi:docname="logo-light.svg">
  <metadata
     id="metadata76">
    <rdf:RDF>
      <cc:Work
         rdf:about="">
        <dc:format>image/svg+xml</dc:format>
        <dc:type
           rdf:resource="http://purl.org/dc/dcmitype/StillImage" />
        <dc:title></dc:title>
      </cc:Work>
    </rdf:RDF>
  </metadata>
  <defs
     id="defs74" />
  <sodipodi:namedview
     pagecolor="#ffffff"
     bordercolor="#666666"
     borderopacity="1"
     objecttolerance="10"
     gridtolerance="10"
     guidetolerance="10"
     inkscape:pageopacity="0"
     inkscape:pageshadow="2"
     inkscape:window-width="764"
     inkscape:window-height="480"
     id="namedview72"
     showgrid="false"
     inkscape:zoom="0.32300358"
     inkscape:cx="365.32105"
     inkscape:cy="100"
     inkscape:window-x="389"
     inkscape:window-y="115"
     inkscape:window-maximized="0"
     inkscape:current-layer="text3398" />
  <style
     id="style3">.st0{fill:none;} .st1{fill:#FFC107;} .st2{fill:#0F9D58;} .st3{opacity:0.2;fill:#BF360C;enable-background:new ;} .st4{opacity:0.2;fill:#263238;enable-background:new ;} .st5{opacity:0.2;fill:#FFFFFF;enable-background:new ;} .st6{fill:url(#XMLID_126_);} .st7{fill:url(#XMLID_127_);} .st8{fill:#4285F4;} .st9{fill:#DB4437;} .st10{opacity:0.2;fill:#1A237E;enable-background:new ;} .st11{opacity:0.2;fill:#3E2723;enable-background:new ;} .st12{fill:url(#XMLID_128_);} .st13{fill:#FAFAFA;}</style>
  <g
     id="XMLID_60_">
    <g
       id="XMLID_61_">
      <g
         id="XMLID_62_">
        <path
           id="XMLID_106_"
           class="st0"
           d="M122.5 90.6L70.1 0H0l57.8 100L0 200h70.1l52.4-90.6c3.3-5.8 3.3-13 0-18.8z" />
        <path
           id="XMLID_105_"
           class="st1"
           d="M92.4 159.8l-16.6-28.7L35.9 200h34.2l22.8-39.4z" />
        <path
           id="XMLID_104_"
           class="st0"
           d="M122.5 90.6L70.1 0H0l57.8 100L0 200h70.1l52.4-90.6c3.3-5.8 3.3-13 0-18.8z" />
        <path
           id="XMLID_103_"
           class="st2"
           d="M57.8 100l18 31.1L35.9 200H0z" />
        <path
           id="XMLID_102_"
           class="st0"
           d="M122.5 90.6L70.1 0H0l57.8 100L0 200h70.1l52.4-90.6c3.3-5.8 3.3-13 0-18.8z" />
        <path
           id="XMLID_101_"
           class="st3"
           d="M70.1 198.4H36.8l-.9 1.6h34.2l22.8-39.4-.5-.8z" />
        <path
           id="XMLID_100_"
           class="st0"
           d="M122.5 90.6L70.1 0H0l57.8 100L0 200h70.1l52.4-90.6c3.3-5.8 3.3-13 0-18.8z" />
        <path
           id="XMLID_99_"
           class="st4"
           d="M.9 198.4L0 200h35.9l.9-1.6z" />
        <path
           id="XMLID_98_"
           class="st0"
           d="M122.5 90.6L70.1 0H0l57.8 100L0 200h70.1l52.4-90.6c3.3-5.8 3.3-13 0-18.8z" />
        <path
           id="XMLID_96_"
           class="st5"
           d="M0 200h.9l57.4-99.2-.5-.8z" />
        <path
           id="XMLID_94_"
           class="st0"
           d="M122.5 90.6L70.1 0H0l57.8 100L0 200h70.1l52.4-90.6c3.3-5.8 3.3-13 0-18.8z" />
        <radialGradient
           id="XMLID_126_"
           cx="92.62"
           cy="2707.501"
           r="69.162"
           gradientTransform="matrix(1 0 0 -1 0 2867.46)"
           gradientUnits="userSpaceOnUse">
          <stop
             offset="0"
             stop-color="#BF360C"
             stop-opacity=".2"
             id="stop20" />
          <stop
             offset="1"
             stop-color="#BF360C"
             stop-opacity=".02"
             id="stop22" />
        </radialGradient>
        <path
           id="XMLID_92_"
           class="st6"
           d="M92.9 160.6l-17.1-29.5-4.2 7.2z" />
        <path
           id="XMLID_90_"
           class="st0"
           d="M122.5 90.6L70.1 0H0l57.8 100L0 200h70.1l52.4-90.6c3.3-5.8 3.3-13 0-18.8z" />
        <radialGradient
           id="XMLID_127_"
           cx="92.423"
           cy="2707.063"
           r="69.723"
           gradientTransform="matrix(1 0 0 -1 0 2867.46)"
           gradientUnits="userSpaceOnUse">
          <stop
             offset="0"
             stop-color="#263238"
             stop-opacity=".2"
             id="stop27" />
          <stop
             offset="1"
             stop-color="#263238"
             stop-opacity=".02"
             id="stop29" />
        </radialGradient>
        <path
           id="XMLID_89_"
           class="st7"
           d="M71.6 138.3l4.2-7.2-18-31.1-8.5 14.8z" />
        <path
           id="XMLID_88_"
           class="st0"
           d="M122.5 90.6L70.1 0H0l57.8 100L0 200h70.1l52.4-90.6c3.3-5.8 3.3-13 0-18.8z" />
        <g
           id="XMLID_85_">
          <g
             id="XMLID_86_">
            <path
               id="XMLID_87_"
               class="st8"
               d="M35.9 0H0l92.9 160.6 17.9-31.1z" />
          </g>
        </g>
        <path
           id="XMLID_84_"
           class="st0"
           d="M122.5 90.6L70.1 0H0l57.8 100L0 200h70.1l52.4-90.6c3.3-5.8 3.3-13 0-18.8z" />
        <path
           id="XMLID_83_"
           class="st9"
           d="M122.5 109.4c3.4-5.8 3.4-13 0-18.8L70.1 0H35.9l74.9 129.5 11.7-20.1z" />
        <path
           id="XMLID_82_"
           class="st0"
           d="M122.5 90.6L70.1 0H0l57.8 100L0 200h70.1l52.4-90.6c3.3-5.8 3.3-13 0-18.8z" />
        <path
           id="XMLID_71_"
           class="st10"
           d="M110.8 129.5l-.4-.8L92.9 159 .9 0H0l92.9 160.6 17.9-31.1z" />
        <path
           id="XMLID_69_"
           class="st0"
           d="M122.5 90.6L70.1 0H0l57.8 100L0 200h70.1l52.4-90.6c3.3-5.8 3.3-13 0-18.8z" />
        <path
           id="XMLID_67_"
           class="st5"
           d="M70.1 1.6l52.4 90.6c1.5 2.7 2.3 5.6 2.5 8.6.1-3.5-.7-7-2.5-10.2L70.1 0H0l.9 1.6h69.2z" />
        <path
           id="XMLID_66_"
           class="st0"
           d="M122.5 90.6L70.1 0H0l57.8 100L0 200h70.1l52.4-90.6c3.3-5.8 3.3-13 0-18.8z" />
        <path
           id="XMLID_65_"
           class="st11"
           d="M110.8 129.5l11.6-20.1c1.8-3.1 2.6-6.7 2.5-10.2-.1 3-.9 5.9-2.5 8.6l-12.1 20.9.5.8z" />
        <path
           id="XMLID_64_"
           class="st0"
           d="M122.5 90.6L70.1 0H0l57.8 100L0 200h70.1l52.4-90.6c3.3-5.8 3.3-13 0-18.8z" />
        <radialGradient
           id="XMLID_128_"
           cx="-1.563"
           cy="2865.898"
           r="209.922"
           gradientTransform="matrix(1 0 0 -1 0 2867.46)"
           gradientUnits="userSpaceOnUse">
          <stop
             offset="0"
             stop-color="#FFF"
             stop-opacity=".1"
             id="stop46" />
          <stop
             offset="1"
             stop-color="#FFF"
             stop-opacity="0"
             id="stop48" />
        </radialGradient>
        <path
           id="XMLID_63_"
           class="st12"
           d="M122.5 90.6L70.1 0H0l57.8 100L0 200h70.1l52.4-90.6c3.3-5.8 3.3-13 0-18.8z" />
      </g>
    </g>
  </g>
  <g
     style="font-style:normal;font-variant:normal;font-weight:500;font-stretch:normal;font-size:80px;line-height:125%;font-family:Ubuntu;-inkscape-font-specification:'Ubuntu Medium';text-align:center;letter-spacing:0px;word-spacing:0px;text-anchor:middle;fill:#4d4d4d;fill-opacity:1;stroke:none;stroke-width:1px;stroke-linecap:butt;stroke-linejoin:miter;stroke-opacity:1"
     id="text3398">
    <path
       d="m 216.40372,25.226429 q -8.56,0 -13.12,5.36 -4.48,5.28 -4.48,14.72 0,4.48 1.04,8.24 1.12,3.68 3.2,6.32 2.16,2.64 5.28,4.16 3.2,1.44 7.44,1.44 2.64,0 4.56,-0.16 1.92,-0.24 3.04,-0.56 l 0,-19.92 10.08,0 0,26.64 q -2.08,0.8 -7.04,1.76 -4.96,0.96 -11.44,0.96 -6,0 -10.96,-1.92 -4.96,-1.92 -8.48,-5.6 -3.44,-3.68 -5.36,-9.04 -1.92,-5.36 -1.92,-12.32 0,-6.96 2.08,-12.32 2.16,-5.36 5.84,-9.04 3.68,-3.76 8.64,-5.68 4.96,-1.92 10.56,-1.92 3.84,0 6.8,0.56 3.04,0.48 5.2,1.12 2.16,0.64 3.52,1.36 1.44,0.72 2,1.04 l -3.04,8.24 q -2.4,-1.44 -6,-2.4 -3.52,-1.04 -7.44,-1.04 z"
       id="path3405"
       inkscape:connector-curvature="0"
       style="fill:#f9f9f9" />
    <path
       d="m 255.25122,64.746429 q 0.88,0.08 2.32,0.16 1.44,0 3.92,0 10.16,0 15.12,-5.12 5.04,-5.2 5.04,-14.48 0,-9.44 -4.88,-14.48 -4.88,-5.04 -15.12,-5.04 -4.48,0 -6.4,0.24 l 0,38.72 z m 36.96,-19.44 q 0,7.2 -2.24,12.56 -2.24,5.28 -6.4,8.88 -4.08,3.52 -9.92,5.28 -5.76,1.68 -12.8,1.68 -3.36,0 -7.6,-0.32 -4.24,-0.24 -8.08,-1.12 l 0,-53.84 q 3.84,-0.88 8.16,-1.12 4.32,-0.24 7.68,-0.24 6.96,0 12.72,1.68 5.76,1.6 9.84,5.12 4.16,3.44 6.4,8.8 2.24,5.28 2.24,12.64 z"
       id="path3407"
       inkscape:connector-curvature="0"
       style="fill:#f9f9f9" />
    <path
       d="m 329.21622,25.226429 q -8.56,0 -13.12,5.36 -4.48,5.28 -4.48,14.72 0,4.48 1.04,8.24 1.12,3.68 3.2,6.32 2.16,2.64 5.28,4.16 3.2,1.44 7.44,1.44 2.64,0 4.56,-0.16 1.92,-0.24 3.04,-0.56 l 0,-19.92 10.08,0 0,26.64 q -2.08,0.8 -7.04,1.76 -4.96,0.96 -11.44,0.96 -6,0 -10.96,-1.92 -4.96,-1.92 -8.48,-5.6 -3.44,-3.68 -5.36,-9.04 -1.92,-5.36 -1.92,-12.32 0,-6.96 2.08,-12.32 2.16,-5.36 5.84,-9.04 3.68,-3.76 8.64,-5.68 4.96,-1.92 10.56,-1.92 3.84,0 6.8,0.56 3.04,0.48 5.2,1.12 2.16,0.64 3.52,1.36 1.44,0.72 2,1.04 l -3.04,8.24 q -2.4,-1.44 -6,-2.4 -3.52,-1.04 -7.44,-1.04 z"
       id="path3409"
       inkscape:connector-curvature="0"
       style="fill:#f9f9f9" />
    <path
       d="m 178.20497,165.54643 q 5.44,0 7.92,-1.84 2.48,-1.84 2.48,-5.2 0,-2 -0.88,-3.44 -0.8,-1.44 -2.4,-2.56 -1.52,-1.2 -3.76,-2.16 -2.24,-1.04 -5.12,-2 -2.88,-1.04 -5.6,-2.24 -2.64,-1.28 -4.72,-3.12 -2,-1.84 -3.28,-4.4 -1.2,-2.56 -1.2,-6.16 0,-7.52 5.2,-11.76 5.2,-4.32 14.16,-4.32 5.2,0 9.2,1.2 4.08,1.12 6.4,2.48 l -3.12,8.16 q -2.72,-1.52 -6,-2.32 -3.2,-0.8 -6.64,-0.8 -4.08,0 -6.4,1.68 -2.24,1.68 -2.24,4.72 0,1.84 0.72,3.2 0.8,1.28 2.16,2.32 1.44,1.04 3.28,1.92 1.92,0.88 4.16,1.68 3.92,1.44 6.96,2.96 3.12,1.44 5.2,3.52 2.16,2 3.28,4.8 1.12,2.72 1.12,6.64 0,7.52 -5.36,11.68 -5.28,4.08 -15.52,4.08 -3.44,0 -6.32,-0.48 -2.8,-0.4 -5.04,-1.04 -2.16,-0.64 -3.76,-1.28 -1.6,-0.72 -2.56,-1.28 l 2.96,-8.24 q 2.16,1.2 5.84,2.4 3.68,1.2 8.88,1.2 z"
       id="path3433"
       inkscape:connector-curvature="0"
       style="fill:#f9f9f9" />
    <path
       d="m 205.08997,152.34643 q 0,-5.52 1.6,-9.68 1.68,-4.16 4.4,-6.88 2.72,-2.8 6.24,-4.16 3.52,-1.44 7.2,-1.44 8.64,0 13.44,5.36 4.88,5.36 4.88,16 0,0.8 -0.08,1.84 0,0.96 -0.08,1.76 l -27.6,0 q 0.4,5.04 3.52,7.84 3.2,2.72 9.2,2.72 3.52,0 6.4,-0.64 2.96,-0.64 4.64,-1.36 l 1.28,7.92 q -0.8,0.4 -2.24,0.88 -1.36,0.4 -3.2,0.72 -1.76,0.4 -3.84,0.64 -2.08,0.24 -4.24,0.24 -5.52,0 -9.6,-1.6 -4.08,-1.68 -6.72,-4.56 -2.64,-2.96 -3.92,-6.88 -1.28,-4 -1.28,-8.72 z m 28.08,-4.32 q 0,-2 -0.56,-3.76 -0.56,-1.84 -1.68,-3.12 -1.04,-1.36 -2.64,-2.08 -1.52,-0.8 -3.68,-0.8 -2.24,0 -3.92,0.88 -1.68,0.8 -2.88,2.16 -1.12,1.36 -1.76,3.12 -0.64,1.76 -0.88,3.6 l 18,0 z"
       id="path3435"
       inkscape:connector-curvature="0"
       style="fill:#f9f9f9" />
    <path
       d="m 267.75497,166.26643 q 4.48,0 6.8,-0.48 l 0,-10.72 q -0.8,-0.24 -2.32,-0.48 -1.52,-0.24 -3.36,-0.24 -1.6,0 -3.28,0.24 -1.6,0.24 -2.96,0.88 -1.28,0.64 -2.08,1.84 -0.8,1.12 -0.8,2.88 0,3.44 2.16,4.8 2.16,1.28 5.84,1.28 z m -0.8,-36.08 q 4.8,0 8.08,1.2 3.28,1.2 5.2,3.36 2,2.16 2.8,5.28 0.88,3.04 0.88,6.72 l 0,25.36 q -2.24,0.48 -6.8,1.12 -4.48,0.72 -10.16,0.72 -3.76,0 -6.88,-0.72 -3.12,-0.72 -5.36,-2.32 -2.16,-1.6 -3.44,-4.16 -1.2,-2.56 -1.2,-6.32 0,-3.6 1.36,-6.08 1.44,-2.48 3.84,-4 2.4,-1.6 5.52,-2.24 3.2,-0.72 6.64,-0.72 1.6,0 3.36,0.24 1.76,0.16 3.76,0.64 l 0,-1.6 q 0,-1.68 -0.4,-3.2 -0.4,-1.52 -1.44,-2.64 -0.96,-1.2 -2.64,-1.84 -1.6,-0.64 -4.08,-0.64 -3.36,0 -6.16,0.48 -2.8,0.48 -4.56,1.12 l -1.2,-7.84 q 1.84,-0.64 5.36,-1.28 3.52,-0.64 7.52,-0.64 z"
       id="path3437"
       inkscape:connector-curvature="0"
       style="fill:#f9f9f9" />
    <path
       d="m 306.17122,166.10643 q 3.84,0 5.6,-0.88 1.76,-0.96 1.76,-3.2 0,-2.08 -1.92,-3.44 -1.84,-1.36 -6.16,-2.96 -2.64,-0.96 -4.88,-2 -2.16,-1.12 -3.76,-2.56 -1.6,-1.44 -2.56,-3.44 -0.88,-2.08 -0.88,-5.04 0,-5.76 4.24,-9.04 4.24,-3.36 11.52,-3.36 3.68,0 7.04,0.72 3.36,0.64 5.04,1.28 l -1.76,7.84 q -1.6,-0.72 -4.08,-1.28 -2.48,-0.64 -5.76,-0.64 -2.96,0 -4.8,1.04 -1.84,0.96 -1.84,3.04 0,1.04 0.32,1.84 0.4,0.8 1.28,1.52 0.88,0.64 2.32,1.36 1.44,0.64 3.52,1.36 3.44,1.28 5.84,2.56 2.4,1.2 3.92,2.8 1.6,1.52 2.32,3.52 0.72,2 0.72,4.8 0,6 -4.48,9.12 -4.4,3.04 -12.64,3.04 -5.52,0 -8.88,-0.96 -3.36,-0.88 -4.72,-1.44 l 1.68,-8.08 q 2.16,0.88 5.12,1.68 3.04,0.8 6.88,0.8 z"
       id="path3439"
       inkscape:connector-curvature="0"
       style="fill:#f9f9f9" />
    <path
       d="m 370.09372,152.10643 q 0,4.96 -1.44,9.04 -1.44,4.08 -4.08,6.96 -2.64,2.88 -6.4,4.48 -3.68,1.6 -8.16,1.6 -4.48,0 -8.16,-1.6 -3.68,-1.6 -6.32,-4.48 -2.64,-2.88 -4.16,-6.96 -1.44,-4.08 -1.44,-9.04 0,-4.96 1.44,-8.96 1.52,-4.08 4.16,-6.96 2.72,-2.88 6.4,-4.4 3.68,-1.6 8.08,-1.6 4.4,0 8.08,1.6 3.76,1.52 6.4,4.4 2.64,2.88 4.08,6.96 1.52,4 1.52,8.96 z m -9.92,0 q 0,-6.24 -2.72,-9.84 -2.64,-3.68 -7.44,-3.68 -4.8,0 -7.52,3.68 -2.64,3.6 -2.64,9.84 0,6.32 2.64,10 2.72,3.68 7.52,3.68 4.8,0 7.44,-3.68 2.72,-3.68 2.72,-10 z"
       id="path3441"
       inkscape:connector-curvature="0"
       style="fill:#f9f9f9" />
    <path
       d="m 380.06622,132.58643 q 2.8,-0.8 7.28,-1.52 4.48,-0.72 9.92,-0.72 5.12,0 8.56,1.44 3.44,1.36 5.44,3.92 2.08,2.48 2.88,6.08 0.88,3.52 0.88,7.76 l 0,23.52 -9.68,0 0,-22 q 0,-3.36 -0.48,-5.68 -0.4,-2.4 -1.44,-3.84 -0.96,-1.52 -2.72,-2.16 -1.68,-0.72 -4.16,-0.72 -1.84,0 -3.84,0.24 -2,0.24 -2.96,0.4 l 0,33.76 -9.68,0 0,-40.48 z"
       id="path3443"
       inkscape:connector-curvature="0"
       style="fill:#f9f9f9" />
    <path
       d="m 477.85497,132.02643 q 0,2.88 -1.2,5.68 -1.2,2.72 -3.12,5.36 -1.84,2.56 -4.24,5.04 -2.4,2.4 -4.8,4.72 -1.28,1.2 -2.88,2.88 -1.6,1.68 -3.04,3.36 -1.44,1.68 -2.48,3.28 -1.04,1.52 -1.12,2.56 l 24.64,0 0,8.16 -35.28,0 q -0.08,-0.64 -0.08,-1.52 0,-0.96 0,-1.44 0,-3.84 1.2,-7.04 1.28,-3.28 3.28,-6.08 2,-2.8 4.48,-5.28 2.48,-2.48 4.96,-4.88 1.92,-1.84 3.68,-3.6 1.76,-1.76 3.04,-3.44 1.36,-1.76 2.16,-3.52 0.8,-1.84 0.8,-3.76 0,-4.16 -2.4,-5.92 -2.4,-1.76 -5.84,-1.76 -2.24,0 -4.16,0.64 -1.92,0.64 -3.44,1.52 -1.44,0.88 -2.56,1.84 -1.12,0.88 -1.68,1.44 l -4.8,-6.8 q 3.36,-3.2 7.84,-5.12 4.56,-2 9.76,-2 8.88,0 13.04,4.24 4.24,4.16 4.24,11.44 z"
       id="path3445"
       inkscape:connector-curvature="0"
       style="fill:#f9f9f9" />
    <path
       d="m 526.84372,145.30643 q 0,14 -5.12,21.52 -5.12,7.44 -14.16,7.44 -9.04,0 -14.16,-7.44 -5.12,-7.52 -5.12,-21.52 0,-6.96 1.28,-12.32 1.36,-5.44 3.84,-9.12 2.56,-3.68 6.08,-5.6 3.6,-1.92 8.08,-1.92 9.04,0 14.16,7.52 5.12,7.44 5.12,21.44 z m -10,0 q 0,-4.32 -0.48,-8.08 -0.48,-3.76 -1.6,-6.48 -1.04,-2.8 -2.8,-4.4 -1.76,-1.6 -4.4,-1.6 -2.64,0 -4.48,1.6 -1.76,1.6 -2.88,4.4 -1.04,2.72 -1.52,6.48 -0.4,3.76 -0.4,8.08 0,4.32 0.4,8.08 0.48,3.76 1.52,6.56 1.12,2.72 2.88,4.32 1.84,1.6 4.48,1.6 2.64,0 4.4,-1.6 1.76,-1.6 2.8,-4.32 1.12,-2.8 1.6,-6.56 0.48,-3.76 0.48,-8.08 z"
       id="path3447"
       inkscape:connector-curvature="0"
       style="fill:#f9f9f9" />
    <path
       d="m 537.51247,129.14643 q 4.64,-1.84 9.28,-4.72 4.72,-2.88 8.32,-6.8 l 6.8,0 0,55.44 -9.68,0 0,-42.48 q -2.16,1.68 -5.44,3.28 -3.28,1.6 -6.32,2.64 l -2.96,-7.36 z"
       id="path3449"
       inkscape:connector-curvature="0"
       style="fill:#f9f9f9" />
    <text
       xml:space="preserve"
       style="font-style:normal;font-variant:normal;font-weight:500;font-stretch:normal;font-size:89.05287933px;line-height:125%;font-family:Ubuntu;-inkscape-font-specification:'Ubuntu Medium';letter-spacing:0px;word-spacing:0px;fill:#f9f9f9;fill-opacity:1;stroke:none;stroke-width:1px;stroke-linecap:butt;stroke-linejoin:miter;stroke-opacity:1;"
       x="597.11127"
       y="175.23247"
       id="text3399"
       sodipodi:linespacing="125%"><tspan
         sodipodi:role="line"
         id="tspan3401"
         x="597.11127"
         y="175.23247">7</tspan></text>
    <text
       xml:space="preserve"
       style="font-style:normal;font-weight:normal;font-size:37.15707779px;line-height:125%;font-family:sans-serif;letter-spacing:0px;word-spacing:0px;fill:#f9f9f9;fill-opacity:1;stroke:none;stroke-width:1px;stroke-linecap:butt;stroke-linejoin:miter;stroke-opacity:1;"
       x="507.90161"
       y="72.249786"
       id="text3403"
       sodipodi:linespacing="125%"><tspan
         sodipodi:role="line"
         id="tspan3405"
         x="507.90161"
         y="72.249786"
         style="font-style:normal;font-variant:normal;font-weight:500;font-stretch:normal;font-size:83.60342407px;font-family:Ubuntu;-inkscape-font-specification:'Ubuntu Medium';fill:#f9f9f9;">I / O</tspan></text>
  </g>
</svg>
