<?xml version="1.0" encoding="UTF-8" standalone="no"?>
<svg
   xmlns:dc="http://purl.org/dc/elements/1.1/"
   xmlns:cc="http://creativecommons.org/ns#"
   xmlns:rdf="http://www.w3.org/1999/02/22-rdf-syntax-ns#"
   xmlns:svg="http://www.w3.org/2000/svg"
   xmlns="http://www.w3.org/2000/svg"
   xmlns:sodipodi="http://sodipodi.sourceforge.net/DTD/sodipodi-0.dtd"
   xmlns:inkscape="http://www.inkscape.org/namespaces/inkscape"
   id="Layer_4"
   viewBox="0 0 839 200"
   version="1.1"
   inkscape:version="0.91 r13725"
   sodipodi:docname="logo-light.svg">
  <metadata
     id="metadata76">
    <rdf:RDF>
      <cc:Work
         rdf:about="">
        <dc:format>image/svg+xml</dc:format>
        <dc:type
           rdf:resource="http://purl.org/dc/dcmitype/StillImage" />
        <dc:title></dc:title>
      </cc:Work>
    </rdf:RDF>
  </metadata>
  <defs
     id="defs74" />
  <sodipodi:namedview
     pagecolor="#ffffff"
     bordercolor="#666666"
     borderopacity="1"
     objecttolerance="10"
     gridtolerance="10"
     guidetolerance="10"
     inkscape:pageopacity="0"
     inkscape:pageshadow="2"
     inkscape:window-width="764"
     inkscape:window-height="480"
     id="namedview72"
     showgrid="false"
     inkscape:zoom="0.32300358"
     inkscape:cx="419.5"
     inkscape:cy="100"
     inkscape:window-x="389"
     inkscape:window-y="115"
     inkscape:window-maximized="0"
     inkscape:current-layer="Layer_4" />
  <style
     id="style3">.st0{fill:none;} .st1{fill:#FFC107;} .st2{fill:#0F9D58;} .st3{opacity:0.2;fill:#BF360C;enable-background:new ;} .st4{opacity:0.2;fill:#263238;enable-background:new ;} .st5{opacity:0.2;fill:#FFFFFF;enable-background:new ;} .st6{fill:url(#XMLID_126_);} .st7{fill:url(#XMLID_127_);} .st8{fill:#4285F4;} .st9{fill:#DB4437;} .st10{opacity:0.2;fill:#1A237E;enable-background:new ;} .st11{opacity:0.2;fill:#3E2723;enable-background:new ;} .st12{fill:url(#XMLID_128_);} .st13{fill:#FAFAFA;}</style>
  <g
     id="XMLID_60_">
    <g
       id="XMLID_61_">
      <g
         id="XMLID_62_">
        <path
           id="XMLID_106_"
           class="st0"
           d="M122.5 90.6L70.1 0H0l57.8 100L0 200h70.1l52.4-90.6c3.3-5.8 3.3-13 0-18.8z" />
        <path
           id="XMLID_105_"
           class="st1"
           d="M92.4 159.8l-16.6-28.7L35.9 200h34.2l22.8-39.4z" />
        <path
           id="XMLID_104_"
           class="st0"
           d="M122.5 90.6L70.1 0H0l57.8 100L0 200h70.1l52.4-90.6c3.3-5.8 3.3-13 0-18.8z" />
        <path
           id="XMLID_103_"
           class="st2"
           d="M57.8 100l18 31.1L35.9 200H0z" />
        <path
           id="XMLID_102_"
           class="st0"
           d="M122.5 90.6L70.1 0H0l57.8 100L0 200h70.1l52.4-90.6c3.3-5.8 3.3-13 0-18.8z" />
        <path
           id="XMLID_101_"
           class="st3"
           d="M70.1 198.4H36.8l-.9 1.6h34.2l22.8-39.4-.5-.8z" />
        <path
           id="XMLID_100_"
           class="st0"
           d="M122.5 90.6L70.1 0H0l57.8 100L0 200h70.1l52.4-90.6c3.3-5.8 3.3-13 0-18.8z" />
        <path
           id="XMLID_99_"
           class="st4"
           d="M.9 198.4L0 200h35.9l.9-1.6z" />
        <path
           id="XMLID_98_"
           class="st0"
           d="M122.5 90.6L70.1 0H0l57.8 100L0 200h70.1l52.4-90.6c3.3-5.8 3.3-13 0-18.8z" />
        <path
           id="XMLID_96_"
           class="st5"
           d="M0 200h.9l57.4-99.2-.5-.8z" />
        <path
           id="XMLID_94_"
           class="st0"
           d="M122.5 90.6L70.1 0H0l57.8 100L0 200h70.1l52.4-90.6c3.3-5.8 3.3-13 0-18.8z" />
        <radialGradient
           id="XMLID_126_"
           cx="92.62"
           cy="2707.501"
           r="69.162"
           gradientTransform="matrix(1 0 0 -1 0 2867.46)"
           gradientUnits="userSpaceOnUse">
          <stop
             offset="0"
             stop-color="#BF360C"
             stop-opacity=".2"
             id="stop20" />
          <stop
             offset="1"
             stop-color="#BF360C"
             stop-opacity=".02"
             id="stop22" />
        </radialGradient>
        <path
           id="XMLID_92_"
           class="st6"
           d="M92.9 160.6l-17.1-29.5-4.2 7.2z" />
        <path
           id="XMLID_90_"
           class="st0"
           d="M122.5 90.6L70.1 0H0l57.8 100L0 200h70.1l52.4-90.6c3.3-5.8 3.3-13 0-18.8z" />
        <radialGradient
           id="XMLID_127_"
           cx="92.423"
           cy="2707.063"
           r="69.723"
           gradientTransform="matrix(1 0 0 -1 0 2867.46)"
           gradientUnits="userSpaceOnUse">
          <stop
             offset="0"
             stop-color="#263238"
             stop-opacity=".2"
             id="stop27" />
          <stop
             offset="1"
             stop-color="#263238"
             stop-opacity=".02"
             id="stop29" />
        </radialGradient>
        <path
           id="XMLID_89_"
           class="st7"
           d="M71.6 138.3l4.2-7.2-18-31.1-8.5 14.8z" />
        <path
           id="XMLID_88_"
           class="st0"
           d="M122.5 90.6L70.1 0H0l57.8 100L0 200h70.1l52.4-90.6c3.3-5.8 3.3-13 0-18.8z" />
        <g
           id="XMLID_85_">
          <g
             id="XMLID_86_">
            <path
               id="XMLID_87_"
               class="st8"
               d="M35.9 0H0l92.9 160.6 17.9-31.1z" />
          </g>
        </g>
        <path
           id="XMLID_84_"
           class="st0"
           d="M122.5 90.6L70.1 0H0l57.8 100L0 200h70.1l52.4-90.6c3.3-5.8 3.3-13 0-18.8z" />
        <path
           id="XMLID_83_"
           class="st9"
           d="M122.5 109.4c3.4-5.8 3.4-13 0-18.8L70.1 0H35.9l74.9 129.5 11.7-20.1z" />
        <path
           id="XMLID_82_"
           class="st0"
           d="M122.5 90.6L70.1 0H0l57.8 100L0 200h70.1l52.4-90.6c3.3-5.8 3.3-13 0-18.8z" />
        <path
           id="XMLID_71_"
           class="st10"
           d="M110.8 129.5l-.4-.8L92.9 159 .9 0H0l92.9 160.6 17.9-31.1z" />
        <path
           id="XMLID_69_"
           class="st0"
           d="M122.5 90.6L70.1 0H0l57.8 100L0 200h70.1l52.4-90.6c3.3-5.8 3.3-13 0-18.8z" />
        <path
           id="XMLID_67_"
           class="st5"
           d="M70.1 1.6l52.4 90.6c1.5 2.7 2.3 5.6 2.5 8.6.1-3.5-.7-7-2.5-10.2L70.1 0H0l.9 1.6h69.2z" />
        <path
           id="XMLID_66_"
           class="st0"
           d="M122.5 90.6L70.1 0H0l57.8 100L0 200h70.1l52.4-90.6c3.3-5.8 3.3-13 0-18.8z" />
        <path
           id="XMLID_65_"
           class="st11"
           d="M110.8 129.5l11.6-20.1c1.8-3.1 2.6-6.7 2.5-10.2-.1 3-.9 5.9-2.5 8.6l-12.1 20.9.5.8z" />
        <path
           id="XMLID_64_"
           class="st0"
           d="M122.5 90.6L70.1 0H0l57.8 100L0 200h70.1l52.4-90.6c3.3-5.8 3.3-13 0-18.8z" />
        <radialGradient
           id="XMLID_128_"
           cx="-1.563"
           cy="2865.898"
           r="209.922"
           gradientTransform="matrix(1 0 0 -1 0 2867.46)"
           gradientUnits="userSpaceOnUse">
          <stop
             offset="0"
             stop-color="#FFF"
             stop-opacity=".1"
             id="stop46" />
          <stop
             offset="1"
             stop-color="#FFF"
             stop-opacity="0"
             id="stop48" />
        </radialGradient>
        <path
           id="XMLID_63_"
           class="st12"
           d="M122.5 90.6L70.1 0H0l57.8 100L0 200h70.1l52.4-90.6c3.3-5.8 3.3-13 0-18.8z" />
      </g>
    </g>
  </g>
  <g
     style="font-style:normal;font-variant:normal;font-weight:normal;font-stretch:normal;font-size:81.25px;line-height:125%;font-family:Ubuntu;-inkscape-font-specification:Ubuntu;text-align:center;letter-spacing:0px;word-spacing:0px;text-anchor:middle;fill:#ffffff;fill-opacity:1;stroke:none;stroke-width:1px;stroke-linecap:butt;stroke-linejoin:miter;stroke-opacity:1"
     id="text3404">
    <path
       d="m 181.92415,47.360156 7.88125,0 0,26.325 q -0.975,0.325 -2.84375,0.73125 -1.7875,0.40625 -4.225,0.8125 -2.35625,0.40625 -5.2,0.65 -2.84375,0.325 -5.76875,0.325 -5.93125,0 -10.80625,-1.95 -4.875,-1.95 -8.36875,-5.6875 -3.49375,-3.7375 -5.44375,-9.18125 -1.86875,-5.44375 -1.86875,-12.5125 0,-7.06875 2.1125,-12.5125 2.19375,-5.525 5.85,-9.2625 3.65625,-3.7375 8.53125,-5.6875 4.95625,-1.95 10.5625,-1.95 3.81875,0 6.74375,0.4875 3.00625,0.4875 5.11875,1.1375 2.1125,0.65 3.4125,1.3 1.38125,0.65 1.86875,0.975 l -2.51875,6.58125 q -2.35625,-1.54375 -6.25625,-2.51875 -3.9,-1.05625 -7.9625,-1.05625 -4.30625,0 -7.88125,1.54375 -3.49375,1.54375 -6.0125,4.46875 -2.4375,2.925 -3.81875,7.15 -1.38125,4.14375 -1.38125,9.34375 0,5.0375 1.1375,9.18125 1.21875,4.14375 3.575,7.15 2.4375,2.925 5.93125,4.55 3.575,1.625 8.36875,1.625 3.4125,0 5.76875,-0.325 2.4375,-0.40625 3.49375,-0.73125 l 0,-20.9625 z"
       style="fill:#ffffff"
       id="path3411" />
    <path
       d="m 248.3765,46.872656 q 0,7.3125 -2.275,12.75625 -2.275,5.3625 -6.41875,8.9375 -4.14375,3.49375 -9.9125,5.28125 -5.76875,1.70625 -12.675,1.70625 -3.4125,0 -7.55625,-0.325 -4.0625,-0.24375 -7.39375,-1.05625 l 0,-54.6 q 3.33125,-0.8125 7.39375,-1.05625 4.14375,-0.325 7.55625,-0.325 6.90625,0 12.675,1.7875 5.76875,1.70625 9.9125,5.28125 4.14375,3.49375 6.41875,8.9375 2.275,5.3625 2.275,12.675 z m -30.63125,21.775 q 11.2125,0 16.7375,-5.6875 5.525,-5.76875 5.525,-16.0875 0,-10.31875 -5.525,-16.00625 -5.525,-5.76875 -16.7375,-5.76875 -3.33125,0 -5.2,0.08125 -1.7875,0.08125 -2.51875,0.1625 l 0,43.0625 q 0.73125,0.08125 2.51875,0.1625 1.86875,0.08125 5.2,0.08125 z"
       style="fill:#ffffff"
       id="path3413" />
    <path
       d="m 294.43636,47.360156 7.88125,0 0,26.325 q -0.975,0.325 -2.84375,0.73125 -1.7875,0.40625 -4.225,0.8125 -2.35625,0.40625 -5.2,0.65 -2.84375,0.325 -5.76875,0.325 -5.93125,0 -10.80625,-1.95 -4.875,-1.95 -8.36875,-5.6875 -3.49375,-3.7375 -5.44375,-9.18125 -1.86875,-5.44375 -1.86875,-12.5125 0,-7.06875 2.1125,-12.5125 2.19375,-5.525 5.85,-9.2625 3.65625,-3.7375 8.53125,-5.6875 4.95625,-1.95 10.5625,-1.95 3.81875,0 6.74375,0.4875 3.00625,0.4875 5.11875,1.1375 2.1125,0.65 3.4125,1.3 1.38125,0.65 1.86875,0.975 l -2.51875,6.58125 q -2.35625,-1.54375 -6.25625,-2.51875 -3.9,-1.05625 -7.9625,-1.05625 -4.30625,0 -7.88125,1.54375 -3.49375,1.54375 -6.0125,4.46875 -2.4375,2.925 -3.81875,7.15 -1.38125,4.14375 -1.38125,9.34375 0,5.0375 1.1375,9.18125 1.21875,4.14375 3.575,7.15 2.4375,2.925 5.93125,4.55 3.575,1.625 8.36875,1.625 3.4125,0 5.76875,-0.325 2.4375,-0.40625 3.49375,-0.73125 l 0,-20.9625 z"
       style="fill:#ffffff"
       id="path3415" />
    <path
       d="m 364.17679,36.878906 q -3.4125,10.8875 -6.90625,20.15 -3.49375,9.2625 -6.9875,18.0375 l -7.88125,0 q -4.30625,-12.43125 -7.6375,-26.24375 -3.25,-13.8125 -6.09375,-30.0625 l 8.2875,0 q 1.1375,6.3375 2.35625,12.675 1.21875,6.3375 2.51875,12.35 1.3,5.93125 2.6,11.375 1.3,5.44375 2.68125,10.075 3.25,-8.53125 6.90625,-18.6875 3.65625,-10.2375 6.825,-21.125 l 6.825,0 q 3.16875,10.8875 6.90625,21.125 3.7375,10.15625 6.9875,18.6875 1.3,-4.55 2.6,-9.99375 1.3,-5.44375 2.51875,-11.375 1.3,-6.0125 2.51875,-12.35 1.21875,-6.41875 2.35625,-12.75625 l 8.04375,0 q -2.925,16.25 -6.25625,30.0625 -3.25,13.8125 -7.475,26.24375 l -7.88125,0 q -3.575,-8.775 -6.9875,-18.0375 -3.4125,-9.2625 -6.825,-20.15 z"
       style="fill:#ffffff"
       id="path3417" />
    <path
       d="m 404.33079,54.022656 q 0,-5.60625 1.625,-9.75 1.625,-4.225 4.30625,-6.9875 2.68125,-2.7625 6.175,-4.14375 3.49375,-1.38125 7.15,-1.38125 8.53125,0 13.08125,5.3625 4.55,5.28125 4.55,16.16875 0,0.4875 0,1.3 0,0.73125 -0.0813,1.38125 l -28.925,0 q 0.4875,6.58125 3.81875,9.99375 3.33125,3.4125 10.4,3.4125 3.98125,0 6.6625,-0.65 2.7625,-0.73125 4.14375,-1.38125 l 1.05625,6.3375 q -1.38125,0.73125 -4.875,1.54375 -3.4125,0.8125 -7.8,0.8125 -5.525,0 -9.5875,-1.625 -3.98125,-1.70625 -6.58125,-4.63125 -2.6,-2.925 -3.9,-6.90625 -1.21875,-4.0625 -1.21875,-8.85625 z m 29.00625,-4.14375 q 0.0813,-5.11875 -2.6,-8.36875 -2.6,-3.33125 -7.23125,-3.33125 -2.6,0 -4.63125,1.05625 -1.95,0.975 -3.33125,2.6 -1.38125,1.625 -2.19375,3.7375 -0.73125,2.1125 -0.975,4.30625 l 20.9625,0 z"
       style="fill:#ffffff"
       id="path3419" />
    <path
       d="m 461.90403,69.622656 q 4.63125,0 6.825,-1.21875 2.275,-1.21875 2.275,-3.9 0,-2.7625 -2.19375,-4.3875 -2.19375,-1.625 -7.23125,-3.65625 -2.4375,-0.975 -4.7125,-1.95 -2.19375,-1.05625 -3.81875,-2.4375 -1.625,-1.38125 -2.6,-3.33125 -0.975,-1.95 -0.975,-4.79375 0,-5.60625 4.14375,-8.85625 4.14375,-3.33125 11.29375,-3.33125 1.7875,0 3.575,0.24375 1.7875,0.1625 3.33125,0.4875 1.54375,0.24375 2.68125,0.56875 1.21875,0.325 1.86875,0.56875 l -1.38125,6.5 q -1.21875,-0.65 -3.81875,-1.3 -2.6,-0.73125 -6.25625,-0.73125 -3.16875,0 -5.525,1.3 -2.35625,1.21875 -2.35625,3.9 0,1.38125 0.4875,2.4375 0.56875,1.05625 1.625,1.95 1.1375,0.8125 2.7625,1.54375 1.625,0.73125 3.9,1.54375 3.00625,1.1375 5.3625,2.275 2.35625,1.05625 3.98125,2.51875 1.70625,1.4625 2.6,3.575 0.89375,2.03125 0.89375,5.0375 0,5.85 -4.3875,8.85625 -4.30625,3.00625 -12.35,3.00625 -5.60625,0 -8.775,-0.975 -3.16875,-0.89375 -4.30625,-1.38125 l 1.38125,-6.5 q 1.3,0.4875 4.14375,1.4625 2.84375,0.975 7.55625,0.975 z"
       style="fill:#ffffff"
       id="path3421" />
    <path
       d="m 495.32318,32.816406 16.00625,0 0,6.3375 -16.00625,0 0,19.5 q 0,3.16875 0.4875,5.28125 0.4875,2.03125 1.4625,3.25 0.975,1.1375 2.4375,1.625 1.4625,0.4875 3.4125,0.4875 3.4125,0 5.44375,-0.73125 2.1125,-0.8125 2.925,-1.1375 l 1.4625,6.25625 q -1.1375,0.56875 -3.98125,1.38125 -2.84375,0.89375 -6.5,0.89375 -4.30625,0 -7.15,-1.05625 -2.7625,-1.1375 -4.46875,-3.33125 -1.70625,-2.19375 -2.4375,-5.3625 -0.65,-3.25 -0.65,-7.475 l 0,-37.7 7.55625,-1.3 0,13.08125 z"
       style="fill:#ffffff"
       id="path3423" />
    <path
       d="m 586.38919,46.872656 q 0,7.3125 -2.275,12.75625 -2.275,5.3625 -6.41875,8.9375 -4.14375,3.49375 -9.9125,5.28125 -5.76875,1.70625 -12.675,1.70625 -3.4125,0 -7.55625,-0.325 -4.0625,-0.24375 -7.39375,-1.05625 l 0,-54.6 q 3.33125,-0.8125 7.39375,-1.05625 4.14375,-0.325 7.55625,-0.325 6.90625,0 12.675,1.7875 5.76875,1.70625 9.9125,5.28125 4.14375,3.49375 6.41875,8.9375 2.275,5.3625 2.275,12.675 z m -30.63125,21.775 q 11.2125,0 16.7375,-5.6875 5.525,-5.76875 5.525,-16.0875 0,-10.31875 -5.525,-16.00625 -5.525,-5.76875 -16.7375,-5.76875 -3.33125,0 -5.2,0.08125 -1.7875,0.08125 -2.51875,0.1625 l 0,43.0625 q 0.73125,0.08125 2.51875,0.1625 1.86875,0.08125 5.2,0.08125 z"
       style="fill:#ffffff"
       id="path3425" />
    <path
       d="m 595.23655,54.022656 q 0,-5.60625 1.625,-9.75 1.625,-4.225 4.30625,-6.9875 2.68125,-2.7625 6.175,-4.14375 3.49375,-1.38125 7.15,-1.38125 8.53125,0 13.08125,5.3625 4.55,5.28125 4.55,16.16875 0,0.4875 0,1.3 0,0.73125 -0.0812,1.38125 l -28.925,0 q 0.4875,6.58125 3.81875,9.99375 3.33125,3.4125 10.4,3.4125 3.98125,0 6.6625,-0.65 2.7625,-0.73125 4.14375,-1.38125 l 1.05625,6.3375 q -1.38125,0.73125 -4.875,1.54375 -3.4125,0.8125 -7.8,0.8125 -5.525,0 -9.5875,-1.625 -3.98125,-1.70625 -6.58125,-4.63125 -2.6,-2.925 -3.9,-6.90625 -1.21875,-4.0625 -1.21875,-8.85625 z m 29.00625,-4.14375 q 0.0813,-5.11875 -2.6,-8.36875 -2.6,-3.33125 -7.23125,-3.33125 -2.6,0 -4.63125,1.05625 -1.95,0.975 -3.33125,2.6 -1.38125,1.625 -2.19375,3.7375 -0.73125,2.1125 -0.975,4.30625 l 20.9625,0 z"
       style="fill:#ffffff"
       id="path3427" />
    <path
       d="m 675.96605,32.816406 q -3.16875,11.8625 -7.475,22.75 -4.225,10.8875 -8.20625,19.5 l -6.825,0 q -3.98125,-8.6125 -8.2875,-19.5 -4.225,-10.8875 -7.39375,-22.75 l 8.125,0 q 0.975,3.98125 2.275,8.53125 1.38125,4.46875 2.84375,8.9375 1.54375,4.3875 3.0875,8.53125 1.54375,4.14375 2.925,7.39375 1.38125,-3.25 2.925,-7.39375 1.54375,-4.14375 3.00625,-8.53125 1.54375,-4.46875 2.84375,-8.9375 1.38125,-4.55 2.35625,-8.53125 l 7.8,0 z"
       style="fill:#ffffff"
       id="path3429" />
    <path
       d="m 684.24974,75.066406 0,-56.30625 33.9625,0 0,6.74375 -26.08125,0 0,16.98125 23.15625,0 0,6.6625 -23.15625,0 0,25.91875 -7.88125,0 z"
       style="fill:#ffffff"
       id="path3431" />
    <path
       d="m 723.93528,54.022656 q 0,-5.60625 1.625,-9.75 1.625,-4.225 4.30625,-6.9875 2.68125,-2.7625 6.175,-4.14375 3.49375,-1.38125 7.15,-1.38125 8.53125,0 13.08125,5.3625 4.55,5.28125 4.55,16.16875 0,0.4875 0,1.3 0,0.73125 -0.0812,1.38125 l -28.925,0 q 0.4875,6.58125 3.81875,9.99375 3.33125,3.4125 10.4,3.4125 3.98125,0 6.6625,-0.65 2.7625,-0.73125 4.14375,-1.38125 l 1.05625,6.3375 q -1.38125,0.73125 -4.875,1.54375 -3.4125,0.8125 -7.8,0.8125 -5.525,0 -9.5875,-1.625 -3.98125,-1.70625 -6.58125,-4.63125 -2.6,-2.925 -3.9,-6.90625 -1.21875,-4.0625 -1.21875,-8.85625 z m 29.00625,-4.14375 q 0.0813,-5.11875 -2.6,-8.36875 -2.6,-3.33125 -7.23125,-3.33125 -2.6,0 -4.63125,1.05625 -1.95,0.975 -3.33125,2.6 -1.38125,1.625 -2.19375,3.7375 -0.73125,2.1125 -0.975,4.30625 l 20.9625,0 z"
       style="fill:#ffffff"
       id="path3433" />
    <path
       d="m 781.50853,69.622656 q 4.63125,0 6.825,-1.21875 2.275,-1.21875 2.275,-3.9 0,-2.7625 -2.19375,-4.3875 -2.19375,-1.625 -7.23125,-3.65625 -2.4375,-0.975 -4.7125,-1.95 -2.19375,-1.05625 -3.81875,-2.4375 -1.625,-1.38125 -2.6,-3.33125 -0.975,-1.95 -0.975,-4.79375 0,-5.60625 4.14375,-8.85625 4.14375,-3.33125 11.29375,-3.33125 1.7875,0 3.575,0.24375 1.7875,0.1625 3.33125,0.4875 1.54375,0.24375 2.68125,0.56875 1.21875,0.325 1.86875,0.56875 l -1.38125,6.5 q -1.21875,-0.65 -3.81875,-1.3 -2.6,-0.73125 -6.25625,-0.73125 -3.16875,0 -5.525,1.3 -2.35625,1.21875 -2.35625,3.9 0,1.38125 0.4875,2.4375 0.56875,1.05625 1.625,1.95 1.1375,0.8125 2.7625,1.54375 1.625,0.73125 3.9,1.54375 3.00625,1.1375 5.3625,2.275 2.35625,1.05625 3.98125,2.51875 1.70625,1.4625 2.6,3.575 0.89375,2.03125 0.89375,5.0375 0,5.85 -4.3875,8.85625 -4.30625,3.00625 -12.35,3.00625 -5.60625,0 -8.775,-0.975 -3.16875,-0.89375 -4.30625,-1.38125 l 1.38125,-6.5 q 1.3,0.4875 4.14375,1.4625 2.84375,0.975 7.55625,0.975 z"
       style="fill:#ffffff"
       id="path3435" />
    <path
       d="m 814.92767,32.816406 16.00625,0 0,6.3375 -16.00625,0 0,19.5 q 0,3.16875 0.4875,5.28125 0.4875,2.03125 1.4625,3.25 0.975,1.1375 2.4375,1.625 1.4625,0.4875 3.4125,0.4875 3.4125,0 5.44375,-0.73125 2.1125,-0.8125 2.925,-1.1375 l 1.4625,6.25625 q -1.1375,0.56875 -3.98125,1.38125 -2.84375,0.89375 -6.5,0.89375 -4.30625,0 -7.15,-1.05625 -2.7625,-1.1375 -4.46875,-3.33125 -1.70625,-2.19375 -2.4375,-5.3625 -0.65,-3.25 -0.65,-7.475 l 0,-37.7 7.55625,-1.3 0,13.08125 z"
       style="fill:#ffffff"
       id="path3437" />
    <path
       d="m 275.44988,171.02266 q 12.35,0 12.35,-8.45 0,-2.6 -1.1375,-4.3875 -1.05625,-1.86875 -2.925,-3.16875 -1.86875,-1.38125 -4.30625,-2.35625 -2.35625,-0.975 -5.0375,-1.95 -3.0875,-1.05625 -5.85,-2.35625 -2.7625,-1.38125 -4.79375,-3.16875 -2.03125,-1.86875 -3.25,-4.3875 -1.1375,-2.51875 -1.1375,-6.09375 0,-7.39375 5.0375,-11.5375 5.0375,-4.14375 13.89375,-4.14375 5.11875,0 9.2625,1.1375 4.225,1.05625 6.175,2.35625 l -2.51875,6.41875 q -1.70625,-1.05625 -5.11875,-2.03125 -3.33125,-1.05625 -7.8,-1.05625 -2.275,0 -4.225,0.4875 -1.95,0.4875 -3.4125,1.4625 -1.4625,0.975 -2.35625,2.51875 -0.8125,1.4625 -0.8125,3.49375 0,2.275 0.89375,3.81875 0.89375,1.54375 2.51875,2.7625 1.625,1.1375 3.7375,2.1125 2.19375,0.975 4.79375,1.95 3.65625,1.4625 6.6625,2.925 3.0875,1.4625 5.28125,3.49375 2.275,2.03125 3.49375,4.875 1.21875,2.7625 1.21875,6.74375 0,7.39375 -5.44375,11.375 -5.3625,3.98125 -15.19375,3.98125 -3.33125,0 -6.175,-0.4875 -2.7625,-0.40625 -4.95625,-0.975 -2.19375,-0.65 -3.81875,-1.3 -1.54375,-0.73125 -2.4375,-1.21875 l 2.35625,-6.5 q 1.86875,1.05625 5.6875,2.35625 3.81875,1.3 9.34375,1.3 z"
       style="fill:#ffffff"
       id="path3439" />
    <path
       d="m 302.68895,155.58516 q 0,-5.60625 1.625,-9.75 1.625,-4.225 4.30625,-6.9875 2.68125,-2.7625 6.175,-4.14375 3.49375,-1.38125 7.15,-1.38125 8.53125,0 13.08125,5.3625 4.55,5.28125 4.55,16.16875 0,0.4875 0,1.3 0,0.73125 -0.0813,1.38125 l -28.925,0 q 0.4875,6.58125 3.81875,9.99375 3.33125,3.4125 10.4,3.4125 3.98125,0 6.6625,-0.65 2.7625,-0.73125 4.14375,-1.38125 l 1.05625,6.3375 q -1.38125,0.73125 -4.875,1.54375 -3.4125,0.8125 -7.8,0.8125 -5.525,0 -9.5875,-1.625 -3.98125,-1.70625 -6.58125,-4.63125 -2.6,-2.925 -3.9,-6.90625 -1.21875,-4.0625 -1.21875,-8.85625 z m 29.00625,-4.14375 q 0.0813,-5.11875 -2.6,-8.36875 -2.6,-3.33125 -7.23125,-3.33125 -2.6,0 -4.63125,1.05625 -1.95,0.975 -3.33125,2.6 -1.38125,1.625 -2.19375,3.7375 -0.73125,2.1125 -0.975,4.30625 l 20.9625,0 z"
       style="fill:#ffffff"
       id="path3441" />
    <path
       d="m 364.73094,171.18516 q 2.68125,0 4.7125,-0.0812 2.1125,-0.1625 3.49375,-0.4875 l 0,-12.59375 q -0.8125,-0.40625 -2.68125,-0.65 -1.7875,-0.325 -4.3875,-0.325 -1.70625,0 -3.65625,0.24375 -1.86875,0.24375 -3.49375,1.05625 -1.54375,0.73125 -2.6,2.1125 -1.05625,1.3 -1.05625,3.49375 0,4.0625 2.6,5.6875 2.6,1.54375 7.06875,1.54375 z m -0.65,-37.8625 q 4.55,0 7.6375,1.21875 3.16875,1.1375 5.0375,3.33125 1.95,2.1125 2.7625,5.11875 0.8125,2.925 0.8125,6.5 l 0,26.40625 q -0.975,0.1625 -2.7625,0.4875 -1.70625,0.24375 -3.9,0.4875 -2.19375,0.24375 -4.79375,0.40625 -2.51875,0.24375 -5.0375,0.24375 -3.575,0 -6.58125,-0.73125 -3.00625,-0.73125 -5.2,-2.275 -2.19375,-1.625 -3.4125,-4.225 -1.21875,-2.6 -1.21875,-6.25625 0,-3.49375 1.38125,-6.0125 1.4625,-2.51875 3.9,-4.0625 2.4375,-1.54375 5.6875,-2.275 3.25,-0.73125 6.825,-0.73125 1.1375,0 2.35625,0.1625 1.21875,0.0813 2.275,0.325 1.1375,0.1625 1.95,0.325 0.8125,0.1625 1.1375,0.24375 l 0,-2.1125 q 0,-1.86875 -0.40625,-3.65625 -0.40625,-1.86875 -1.4625,-3.25 -1.05625,-1.4625 -2.925,-2.275 -1.7875,-0.89375 -4.7125,-0.89375 -3.7375,0 -6.58125,0.56875 -2.7625,0.4875 -4.14375,1.05625 l -0.89375,-6.25625 q 1.4625,-0.65 4.875,-1.21875 3.4125,-0.65 7.39375,-0.65 z"
       style="fill:#ffffff"
       id="path3443" />
    <path
       d="m 402.63279,171.18516 q 4.63125,0 6.825,-1.21875 2.275,-1.21875 2.275,-3.9 0,-2.7625 -2.19375,-4.3875 -2.19375,-1.625 -7.23125,-3.65625 -2.4375,-0.975 -4.7125,-1.95 -2.19375,-1.05625 -3.81875,-2.4375 -1.625,-1.38125 -2.6,-3.33125 -0.975,-1.95 -0.975,-4.79375 0,-5.60625 4.14375,-8.85625 4.14375,-3.33125 11.29375,-3.33125 1.7875,0 3.575,0.24375 1.7875,0.1625 3.33125,0.4875 1.54375,0.24375 2.68125,0.56875 1.21875,0.325 1.86875,0.56875 l -1.38125,6.5 q -1.21875,-0.65 -3.81875,-1.3 -2.6,-0.73125 -6.25625,-0.73125 -3.16875,0 -5.525,1.3 -2.35625,1.21875 -2.35625,3.9 0,1.38125 0.4875,2.4375 0.56875,1.05625 1.625,1.95 1.1375,0.8125 2.7625,1.54375 1.625,0.73125 3.9,1.54375 3.00625,1.1375 5.3625,2.275 2.35625,1.05625 3.98125,2.51875 1.70625,1.4625 2.6,3.575 0.89375,2.03125 0.89375,5.0375 0,5.85 -4.3875,8.85625 -4.30625,3.00625 -12.35,3.00625 -5.60625,0 -8.775,-0.975 -3.16875,-0.89375 -4.30625,-1.38125 l 1.38125,-6.5 q 1.3,0.4875 4.14375,1.4625 2.84375,0.975 7.55625,0.975 z"
       style="fill:#ffffff"
       id="path3445" />
    <path
       d="m 466.27693,155.50391 q 0,5.0375 -1.4625,9.1 -1.4625,4.0625 -4.14375,6.9875 -2.6,2.925 -6.25625,4.55 -3.65625,1.54375 -7.9625,1.54375 -4.30625,0 -7.9625,-1.54375 -3.65625,-1.625 -6.3375,-4.55 -2.6,-2.925 -4.0625,-6.9875 -1.4625,-4.0625 -1.4625,-9.1 0,-4.95625 1.4625,-9.01875 1.4625,-4.14375 4.0625,-7.06875 2.68125,-2.925 6.3375,-4.46875 3.65625,-1.625 7.9625,-1.625 4.30625,0 7.9625,1.625 3.65625,1.54375 6.25625,4.46875 2.68125,2.925 4.14375,7.06875 1.4625,4.0625 1.4625,9.01875 z m -7.88125,0 q 0,-7.15 -3.25,-11.29375 -3.16875,-4.225 -8.69375,-4.225 -5.525,0 -8.775,4.225 -3.16875,4.14375 -3.16875,11.29375 0,7.15 3.16875,11.375 3.25,4.14375 8.775,4.14375 5.525,0 8.69375,-4.14375 3.25,-4.225 3.25,-11.375 z"
       style="fill:#ffffff"
       id="path3447" />
    <path
       d="m 476.90799,135.59766 q 2.6,-0.65 6.90625,-1.38125 4.30625,-0.73125 9.9125,-0.73125 5.0375,0 8.36875,1.4625 3.33125,1.38125 5.28125,3.98125 2.03125,2.51875 2.84375,6.09375 0.8125,3.575 0.8125,7.88125 l 0,23.725 -7.55625,0 0,-22.1 q 0,-3.9 -0.56875,-6.6625 -0.4875,-2.7625 -1.70625,-4.46875 -1.21875,-1.70625 -3.25,-2.4375 -2.03125,-0.8125 -5.0375,-0.8125 -1.21875,0 -2.51875,0.0813 -1.3,0.0812 -2.51875,0.24375 -1.1375,0.0813 -2.1125,0.24375 -0.89375,0.1625 -1.3,0.24375 l 0,35.66875 -7.55625,0 0,-41.03125 z"
       style="fill:#ffffff"
       id="path3449" />
    <path
       d="m 573.7326,134.70391 q 0,2.925 -1.21875,5.6875 -1.1375,2.68125 -3.0875,5.3625 -1.95,2.6 -4.3875,5.2 -2.4375,2.51875 -4.875,4.95625 -1.38125,1.38125 -3.25,3.25 -1.7875,1.86875 -3.4125,3.9 -1.625,2.03125 -2.7625,3.9 -1.05625,1.86875 -1.05625,3.25 l 25.91875,0 0,6.41875 -34.125,0 q -0.0813,-0.4875 -0.0813,-0.975 0,-0.4875 0,-0.89375 0,-3.81875 1.21875,-7.06875 1.3,-3.33125 3.33125,-6.25625 2.03125,-2.925 4.55,-5.525 2.51875,-2.6 4.95625,-5.0375 2.03125,-1.95 3.81875,-3.81875 1.86875,-1.95 3.25,-3.81875 1.4625,-1.95 2.275,-3.98125 0.89375,-2.03125 0.89375,-4.30625 0,-2.4375 -0.8125,-4.14375 -0.73125,-1.70625 -2.03125,-2.84375 -1.3,-1.1375 -3.0875,-1.625 -1.70625,-0.56875 -3.65625,-0.56875 -2.35625,0 -4.30625,0.65 -1.95,0.65 -3.49375,1.54375 -1.54375,0.8125 -2.6,1.7875 -1.05625,0.89375 -1.625,1.38125 l -3.7375,-5.3625 q 0.73125,-0.8125 2.19375,-1.95 1.4625,-1.21875 3.49375,-2.275 2.03125,-1.05625 4.55,-1.7875 2.51875,-0.73125 5.44375,-0.73125 8.85625,0 13.24375,4.14375 4.46875,4.0625 4.46875,11.5375 z"
       style="fill:#ffffff"
       id="path3451" />
    <path
       d="m 585.71317,148.43516 q 0,-14.1375 4.95625,-21.775 5.0375,-7.6375 13.89375,-7.6375 8.85625,0 13.8125,7.6375 5.0375,7.6375 5.0375,21.775 0,14.1375 -5.0375,21.775 -4.95625,7.6375 -13.8125,7.6375 -8.85625,0 -13.89375,-7.6375 -4.95625,-7.6375 -4.95625,-21.775 z m 29.7375,0 q 0,-4.63125 -0.56875,-8.775 -0.4875,-4.14375 -1.7875,-7.23125 -1.21875,-3.0875 -3.33125,-4.875 -2.1125,-1.86875 -5.2,-1.86875 -3.0875,0 -5.2,1.86875 -2.1125,1.7875 -3.4125,4.875 -1.21875,3.0875 -1.7875,7.23125 -0.4875,4.14375 -0.4875,8.775 0,4.63125 0.4875,8.775 0.56875,4.14375 1.7875,7.23125 1.3,3.0875 3.4125,4.95625 2.1125,1.7875 5.2,1.7875 3.0875,0 5.2,-1.7875 2.1125,-1.86875 3.33125,-4.95625 1.3,-3.0875 1.7875,-7.23125 0.56875,-4.14375 0.56875,-8.775 z"
       style="fill:#ffffff"
       id="path3453" />
    <path
       d="m 635.06873,131.94141 q 4.63125,-1.7875 9.01875,-4.55 4.3875,-2.84375 8.04375,-7.06875 l 5.3625,0 0,56.30625 -7.55625,0 0,-45.825 q -0.975,0.89375 -2.4375,1.86875 -1.38125,0.975 -3.0875,1.86875 -1.625,0.89375 -3.49375,1.70625 -1.7875,0.8125 -3.49375,1.38125 l -2.35625,-5.6875 z"
       style="fill:#ffffff"
       id="path3455" />
    <path
       d="m 678.49305,154.04141 q 0,-8.20625 2.275,-14.4625 2.275,-6.3375 6.41875,-10.64375 4.225,-4.30625 10.15625,-6.5 6.0125,-2.275 13.4875,-2.35625 l 0.56875,6.3375 q -4.79375,0.0812 -8.775,1.05625 -3.9,0.975 -6.9875,3.0875 -3.0875,2.1125 -5.2,5.525 -2.1125,3.33125 -3.16875,8.2875 2.1125,-0.975 4.7125,-1.625 2.68125,-0.65 5.525,-0.65 4.79375,0 8.125,1.4625 3.33125,1.4625 5.44375,3.9 2.1125,2.35625 3.00625,5.525 0.975,3.0875 0.975,6.5 0,3.0875 -1.05625,6.3375 -1.05625,3.25 -3.25,5.93125 -2.1125,2.68125 -5.44375,4.3875 -3.33125,1.70625 -7.88125,1.70625 -9.2625,0 -14.1375,-6.3375 -4.79375,-6.3375 -4.79375,-17.46875 z m 18.2,-5.76875 q -2.84375,0 -5.28125,0.56875 -2.4375,0.4875 -4.875,1.54375 -0.0812,0.89375 -0.1625,1.86875 0,0.89375 0,1.7875 0,3.575 0.4875,6.74375 0.4875,3.16875 1.70625,5.60625 1.3,2.35625 3.4125,3.81875 2.1125,1.38125 5.3625,1.38125 2.68125,0 4.55,-1.1375 1.86875,-1.1375 3.0875,-2.925 1.21875,-1.7875 1.70625,-3.81875 0.56875,-2.1125 0.56875,-4.0625 0,-5.525 -2.68125,-8.45 -2.6,-2.925 -7.88125,-2.925 z"
       style="fill:#ffffff"
       id="path3457" />
  </g>
</svg>
